<svg width="343" height="448" viewBox="0 0 343 448" fill="none" xmlns="http://www.w3.org/2000/svg">
<g clip-path="url(#clip0_53_225)">
<mask id="mask0_53_225" style="mask-type:luminance" maskUnits="userSpaceOnUse" x="0" y="0" width="343" height="448">
<path d="M343 0H0V448H343V0Z" fill="white" style="fill:white;fill-opacity:1;"/>
</mask>
<g mask="url(#mask0_53_225)">
<path fill-rule="evenodd" clip-rule="evenodd" d="M665.921 35.1188C693.913 63.1106 693.913 108.494 665.921 136.486L222.486 579.921C194.495 607.913 149.111 607.913 121.119 579.921L-322.316 136.486C-350.308 108.494 -350.308 63.1106 -322.316 35.1187L121.119 -408.316C149.111 -436.308 194.495 -436.308 222.486 -408.316L665.921 35.1188Z" fill="url(#paint0_linear_53_225)"/>
<path fill-rule="evenodd" clip-rule="evenodd" d="M665.921 124.724C693.913 152.716 693.913 198.099 665.921 226.091L222.486 669.526C194.495 697.518 149.111 697.518 121.119 669.526L-322.316 226.091C-350.308 198.099 -350.308 152.716 -322.316 124.724L121.119 -318.711C149.111 -346.703 194.495 -346.703 222.486 -318.711L665.921 124.724Z" fill="url(#paint1_linear_53_225)"/>
<path fill-rule="evenodd" clip-rule="evenodd" d="M665.921 214.328C693.913 242.32 693.913 287.704 665.921 315.696L222.486 759.131C194.495 787.123 149.111 787.123 121.119 759.131L-322.316 315.696C-350.308 287.704 -350.308 242.32 -322.316 214.328L121.119 -229.107C149.111 -257.098 194.495 -257.098 222.486 -229.107L665.921 214.328Z" fill="url(#paint2_linear_53_225)"/>
<path fill-rule="evenodd" clip-rule="evenodd" d="M665.921 303.933C693.913 331.925 693.913 377.309 665.921 405.301L222.486 848.736C194.495 876.728 149.111 876.728 121.119 848.736L-322.316 405.301C-350.308 377.309 -350.308 331.925 -322.316 303.933L121.119 -139.502C149.111 -167.494 194.495 -167.494 222.486 -139.502L665.921 303.933Z" fill="url(#paint3_linear_53_225)"/>
<path fill-rule="evenodd" clip-rule="evenodd" d="M665.921 393.538C693.913 421.53 693.913 466.914 665.921 494.905L222.486 938.341C194.495 966.332 149.111 966.332 121.119 938.341L-322.316 494.905C-350.308 466.914 -350.308 421.53 -322.316 393.538L121.119 -49.8969C149.111 -77.8887 194.495 -77.8887 222.486 -49.8969L665.921 393.538Z" fill="url(#paint4_linear_53_225)"/>
<path fill-rule="evenodd" clip-rule="evenodd" d="M665.921 483.143C693.913 511.135 693.913 556.519 665.921 584.51L222.486 1027.95C194.495 1055.94 149.111 1055.94 121.119 1027.95L-322.316 584.51C-350.308 556.519 -350.308 511.135 -322.316 483.143L121.119 39.7079C149.111 11.7161 194.495 11.7161 222.486 39.7079L665.921 483.143Z" fill="url(#paint5_linear_53_225)"/>
<path fill-rule="evenodd" clip-rule="evenodd" d="M665.921 572.748C693.913 600.74 693.913 646.123 665.921 674.115L222.486 1117.55C194.495 1145.54 149.111 1145.54 121.119 1117.55L-322.316 674.115C-350.308 646.123 -350.308 600.74 -322.316 572.748L121.119 129.313C149.111 101.321 194.495 101.321 222.486 129.313L665.921 572.748Z" fill="url(#paint6_linear_53_225)"/>
<path fill-rule="evenodd" clip-rule="evenodd" d="M665.921 662.353C693.913 690.345 693.913 735.728 665.921 763.72L222.486 1207.16C194.495 1235.15 149.111 1235.15 121.119 1207.16L-322.316 763.72C-350.308 735.728 -350.308 690.345 -322.316 662.353L121.119 218.918C149.111 190.926 194.495 190.926 222.486 218.918L665.921 662.353Z" fill="url(#paint7_linear_53_225)"/>
<path fill-rule="evenodd" clip-rule="evenodd" d="M665.921 751.958C693.913 779.949 693.913 825.333 665.921 853.325L222.486 1296.76C194.495 1324.75 149.111 1324.75 121.119 1296.76L-322.316 853.325C-350.308 825.333 -350.308 779.949 -322.316 751.958L121.119 308.523C149.111 280.531 194.495 280.531 222.486 308.523L665.921 751.958Z" fill="url(#paint8_linear_53_225)"/>
</g>
</g>
<defs>
<linearGradient id="paint0_linear_53_225" x1="172.527" y1="-848.041" x2="171.078" y2="1019.65" gradientUnits="userSpaceOnUse">
<stop offset="0.245192" stop-color="#010038" style="stop-color:#010038;stop-color:color(display-p3 0.0049 0.0000 0.2200);stop-opacity:1;"/>
<stop offset="0.293269" stop-color="#000B8F" style="stop-color:#000B8F;stop-color:color(display-p3 0.0000 0.0431 0.5602);stop-opacity:1;"/>
<stop offset="0.350962" stop-color="#255AF6" style="stop-color:#255AF6;stop-color:color(display-p3 0.1451 0.3529 0.9647);stop-opacity:1;"/>
<stop offset="0.418269" stop-color="#C7DFFF" style="stop-color:#C7DFFF;stop-color:color(display-p3 0.7804 0.8756 1.0000);stop-opacity:1;"/>
</linearGradient>
<linearGradient id="paint1_linear_53_225" x1="172.527" y1="-758.436" x2="171.078" y2="1109.25" gradientUnits="userSpaceOnUse">
<stop offset="0.245192" stop-color="#010038" style="stop-color:#010038;stop-color:color(display-p3 0.0049 0.0000 0.2200);stop-opacity:1;"/>
<stop offset="0.293269" stop-color="#000B8F" style="stop-color:#000B8F;stop-color:color(display-p3 0.0000 0.0431 0.5602);stop-opacity:1;"/>
<stop offset="0.350962" stop-color="#255AF6" style="stop-color:#255AF6;stop-color:color(display-p3 0.1451 0.3529 0.9647);stop-opacity:1;"/>
<stop offset="0.418269" stop-color="#C7DFFF" style="stop-color:#C7DFFF;stop-color:color(display-p3 0.7804 0.8756 1.0000);stop-opacity:1;"/>
</linearGradient>
<linearGradient id="paint2_linear_53_225" x1="172.527" y1="-668.831" x2="171.078" y2="1198.86" gradientUnits="userSpaceOnUse">
<stop offset="0.245192" stop-color="#010038" style="stop-color:#010038;stop-color:color(display-p3 0.0049 0.0000 0.2200);stop-opacity:1;"/>
<stop offset="0.293269" stop-color="#000B8F" style="stop-color:#000B8F;stop-color:color(display-p3 0.0000 0.0431 0.5602);stop-opacity:1;"/>
<stop offset="0.350962" stop-color="#255AF6" style="stop-color:#255AF6;stop-color:color(display-p3 0.1451 0.3529 0.9647);stop-opacity:1;"/>
<stop offset="0.418269" stop-color="#C7DFFF" style="stop-color:#C7DFFF;stop-color:color(display-p3 0.7804 0.8756 1.0000);stop-opacity:1;"/>
</linearGradient>
<linearGradient id="paint3_linear_53_225" x1="172.527" y1="-579.226" x2="171.078" y2="1288.46" gradientUnits="userSpaceOnUse">
<stop offset="0.245192" stop-color="#010038" style="stop-color:#010038;stop-color:color(display-p3 0.0049 0.0000 0.2200);stop-opacity:1;"/>
<stop offset="0.293269" stop-color="#000B8F" style="stop-color:#000B8F;stop-color:color(display-p3 0.0000 0.0431 0.5602);stop-opacity:1;"/>
<stop offset="0.350962" stop-color="#255AF6" style="stop-color:#255AF6;stop-color:color(display-p3 0.1451 0.3529 0.9647);stop-opacity:1;"/>
<stop offset="0.418269" stop-color="#C7DFFF" style="stop-color:#C7DFFF;stop-color:color(display-p3 0.7804 0.8756 1.0000);stop-opacity:1;"/>
</linearGradient>
<linearGradient id="paint4_linear_53_225" x1="172.527" y1="-489.621" x2="171.078" y2="1378.07" gradientUnits="userSpaceOnUse">
<stop offset="0.245192" stop-color="#010038" style="stop-color:#010038;stop-color:color(display-p3 0.0049 0.0000 0.2200);stop-opacity:1;"/>
<stop offset="0.293269" stop-color="#000B8F" style="stop-color:#000B8F;stop-color:color(display-p3 0.0000 0.0431 0.5602);stop-opacity:1;"/>
<stop offset="0.350962" stop-color="#255AF6" style="stop-color:#255AF6;stop-color:color(display-p3 0.1451 0.3529 0.9647);stop-opacity:1;"/>
<stop offset="0.418269" stop-color="#C7DFFF" style="stop-color:#C7DFFF;stop-color:color(display-p3 0.7804 0.8756 1.0000);stop-opacity:1;"/>
</linearGradient>
<linearGradient id="paint5_linear_53_225" x1="172.527" y1="-400.017" x2="171.078" y2="1467.67" gradientUnits="userSpaceOnUse">
<stop offset="0.245192" stop-color="#010038" style="stop-color:#010038;stop-color:color(display-p3 0.0049 0.0000 0.2200);stop-opacity:1;"/>
<stop offset="0.293269" stop-color="#000B8F" style="stop-color:#000B8F;stop-color:color(display-p3 0.0000 0.0431 0.5602);stop-opacity:1;"/>
<stop offset="0.350962" stop-color="#255AF6" style="stop-color:#255AF6;stop-color:color(display-p3 0.1451 0.3529 0.9647);stop-opacity:1;"/>
<stop offset="0.418269" stop-color="#C7DFFF" style="stop-color:#C7DFFF;stop-color:color(display-p3 0.7804 0.8756 1.0000);stop-opacity:1;"/>
</linearGradient>
<linearGradient id="paint6_linear_53_225" x1="172.527" y1="-310.412" x2="171.078" y2="1557.28" gradientUnits="userSpaceOnUse">
<stop offset="0.245192" stop-color="#010038" style="stop-color:#010038;stop-color:color(display-p3 0.0049 0.0000 0.2200);stop-opacity:1;"/>
<stop offset="0.293269" stop-color="#000B8F" style="stop-color:#000B8F;stop-color:color(display-p3 0.0000 0.0431 0.5602);stop-opacity:1;"/>
<stop offset="0.350962" stop-color="#255AF6" style="stop-color:#255AF6;stop-color:color(display-p3 0.1451 0.3529 0.9647);stop-opacity:1;"/>
<stop offset="0.418269" stop-color="#C7DFFF" style="stop-color:#C7DFFF;stop-color:color(display-p3 0.7804 0.8756 1.0000);stop-opacity:1;"/>
</linearGradient>
<linearGradient id="paint7_linear_53_225" x1="172.527" y1="-220.807" x2="171.078" y2="1646.88" gradientUnits="userSpaceOnUse">
<stop offset="0.245192" stop-color="#010038" style="stop-color:#010038;stop-color:color(display-p3 0.0049 0.0000 0.2200);stop-opacity:1;"/>
<stop offset="0.293269" stop-color="#000B8F" style="stop-color:#000B8F;stop-color:color(display-p3 0.0000 0.0431 0.5602);stop-opacity:1;"/>
<stop offset="0.350962" stop-color="#255AF6" style="stop-color:#255AF6;stop-color:color(display-p3 0.1451 0.3529 0.9647);stop-opacity:1;"/>
<stop offset="0.418269" stop-color="#C7DFFF" style="stop-color:#C7DFFF;stop-color:color(display-p3 0.7804 0.8756 1.0000);stop-opacity:1;"/>
</linearGradient>
<linearGradient id="paint8_linear_53_225" x1="172.527" y1="-131.202" x2="171.078" y2="1736.48" gradientUnits="userSpaceOnUse">
<stop offset="0.245192" stop-color="#010038" style="stop-color:#010038;stop-color:color(display-p3 0.0049 0.0000 0.2200);stop-opacity:1;"/>
<stop offset="0.293269" stop-color="#000B8F" style="stop-color:#000B8F;stop-color:color(display-p3 0.0000 0.0431 0.5602);stop-opacity:1;"/>
<stop offset="0.350962" stop-color="#255AF6" style="stop-color:#255AF6;stop-color:color(display-p3 0.1451 0.3529 0.9647);stop-opacity:1;"/>
<stop offset="0.418269" stop-color="#C7DFFF" style="stop-color:#C7DFFF;stop-color:color(display-p3 0.7804 0.8756 1.0000);stop-opacity:1;"/>
</linearGradient>
<clipPath id="clip0_53_225">
<rect width="343" height="448" fill="white" style="fill:white;fill-opacity:1;"/>
</clipPath>
</defs>
</svg>
